<svg width="170" height="184" viewBox="0 0 170 184" fill="none" xmlns="http://www.w3.org/2000/svg">
<g opacity="0.2" clip-path="url(#clip0_2234_8803)">
<path d="M28.0975 0C-50.4557 0 -114 63.5443 -114 142.097C-114 220.456 -50.4557 284.195 28.0975 284.195C106.456 284.195 170.195 220.651 170.195 142.097C170 63.5443 106.456 0 28.0975 0ZM28.0975 275.034C-45.3878 275.034 -104.839 215.583 -104.839 142.097C-104.839 68.6122 -45.3878 9.16129 28.0975 9.16129C101.583 9.16129 161.034 68.6122 161.034 142.097C161.034 215.388 101.388 275.034 28.0975 275.034Z" fill="white"/>
<path d="M28.0988 30.6025C-33.3014 30.6025 -83.2012 80.5023 -83.2012 141.902C-83.2012 203.303 -33.3014 253.202 28.0988 253.202C89.4989 253.202 139.399 203.498 139.399 142.097C139.399 80.5023 89.4989 30.6025 28.0988 30.6025ZM28.0988 236.244C-23.9452 236.244 -66.243 193.946 -66.243 141.902C-66.243 89.8585 -23.9452 47.5607 28.0988 47.5607C80.1427 47.5607 122.441 89.8585 122.441 141.902C122.441 193.946 80.1427 236.244 28.0988 236.244Z" fill="white"/>
<path d="M28.098 79.5273C-6.40304 79.5273 -34.4717 107.596 -34.4717 142.097C-34.4717 176.598 -6.59796 204.667 28.098 204.667C62.599 204.667 90.6677 176.598 90.6677 142.097C90.4727 107.596 62.599 79.5273 28.098 79.5273ZM28.098 175.623C9.58049 175.623 -5.42843 160.614 -5.42843 142.097C-5.42843 123.579 9.58049 108.571 28.098 108.571C46.6155 108.571 61.6244 123.579 61.6244 142.097C61.6244 160.614 46.6155 175.623 28.098 175.623Z" fill="white"/>
</g>
<defs>
<clipPath id="clip0_2234_8803">
<rect width="284" height="284" fill="white" transform="translate(-114)"/>
</clipPath>
</defs>
</svg>
